<svg width="35" height="35" viewBox="0 0 35 35" fill="none" xmlns="http://www.w3.org/2000/svg">
<g clip-path="url(#clip0_920_1094)">
<path fill-rule="evenodd" clip-rule="evenodd" d="M6 30.8549C6.00011 31.6342 6.25909 32.3915 6.73628 33.0077C7.21346 33.6239 7.88182 34.0642 8.63636 34.2593V35.9501H10.3939V34.37H24.4545V35.9501H26.2121V34.2593C27.728 33.8691 28.8485 32.4929 28.8485 30.8549V28.0515H30.1719C30.405 28.0515 30.6285 28.1441 30.7933 28.3089C30.9581 28.4737 31.0507 28.6973 31.0507 28.9303V30.4208H35V29.375C35.0001 28.1444 34.5698 26.9524 33.7838 26.0056C32.9977 25.0587 31.9053 24.4165 30.6957 24.1901H33.4199V22.4326H29.4707V24.1023H28.2166C27.9977 23.8041 27.73 23.545 27.4248 23.336C26.8829 22.9651 26.2413 22.7672 25.5847 22.7683C25.5847 22.7683 26.1849 22.1417 26.8703 21.1777C27.7851 19.8911 28.8485 18.007 28.8485 16.2037V4H6V16.2037C6 18.0079 7.06421 19.892 7.97727 21.1777C8.37095 21.7356 8.80103 22.267 9.2647 22.7683C8.83588 22.7677 8.41117 22.8517 8.01487 23.0155C7.61858 23.1793 7.25849 23.4197 6.95523 23.7229C6.65197 24.0261 6.4115 24.3861 6.24759 24.7823C6.08367 25.1786 5.99954 25.6033 6 26.0321V30.8549ZM21.4649 24.5258L21.8182 24.1576V21.4501H20.0606V24.5258H18.303V21.4501H16.5455V24.5258H14.7879V21.4501H13.0303V24.1576L13.3836 24.5258H9.26382C8.43161 24.5258 7.75758 25.1999 7.75758 26.0321V27.3283C7.94564 27.4381 8.1337 27.5348 8.32264 27.6183C10.1945 28.4584 12.0654 28.0753 13.9372 26.4715C16.3943 28.5779 18.8514 28.5779 21.3094 26.4715C23.1812 28.0761 25.0521 28.4575 26.9239 27.6192C26.98 27.5937 27.0357 27.5673 27.0909 27.5401V26.0321C27.0909 25.1999 26.4169 24.5258 25.5847 24.5258H21.4649ZM27.0909 16.2037C27.0909 17.2477 26.5197 18.5211 25.756 19.6925H9.09246C8.32791 18.5211 7.75758 17.2477 7.75758 16.2037V13.7308C15.0919 15.1369 19.6344 15.1562 27.0909 13.65V16.2037ZM27.0909 11.8555C19.5474 13.4092 15.1886 13.3907 7.75758 11.9407V5.75758H27.0909V11.8564V11.8555ZM25.1804 32.6124C25.644 32.6085 26.0872 32.4216 26.4136 32.0924C26.74 31.7632 26.9231 31.3184 26.9231 30.8549V29.4998C26.3006 29.7034 25.6499 29.8078 24.995 29.8091C23.6812 29.8091 22.4491 29.3864 21.3085 28.6597C20.1687 29.3864 18.9358 29.8091 17.6228 29.8091C16.3091 29.8091 15.077 29.3855 13.9372 28.6597C12.7974 29.3855 11.5645 29.8091 10.2507 29.8091C9.59576 29.8078 8.94512 29.7034 8.32264 29.4998V30.8549C8.32262 31.3184 8.50574 31.7632 8.83213 32.0924C9.15851 32.4216 9.60173 32.6085 10.0653 32.6124H25.1804Z" fill="#4A71D3"/>
</g>
<defs>
<clipPath id="clip0_920_1094">
<rect width="35" height="35" fill="white"/>
</clipPath>
</defs>
</svg>
