<svg width="29" height="32" viewBox="0 0 29 32" fill="none" xmlns="http://www.w3.org/2000/svg">
<path fill-rule="evenodd" clip-rule="evenodd" d="M1.89834e-06 26.8549C0.000105549 27.6342 0.259089 28.3915 0.736276 29.0077C1.21346 29.6239 1.88182 30.0642 2.63636 30.2593V31.9501H4.39394V30.37H18.4545V31.9501H20.2121V30.2593C21.728 29.8691 22.8485 28.4929 22.8485 26.8549V24.0515H24.1719C24.405 24.0515 24.6285 24.1441 24.7933 24.3089C24.9581 24.4737 25.0507 24.6973 25.0507 24.9303V26.4208H29V25.375C29.0001 24.1444 28.5698 22.9524 27.7838 22.0056C26.9977 21.0587 25.9053 20.4165 24.6957 20.1901H27.4199V18.4326H23.4707V20.1023H22.2166C21.9977 19.8041 21.73 19.545 21.4248 19.336C20.8829 18.9651 20.2413 18.7672 19.5847 18.7683C19.5847 18.7683 20.1849 18.1417 20.8703 17.1777C21.7851 15.8911 22.8485 14.007 22.8485 12.2037V0H1.89834e-06V12.2037C1.89834e-06 14.0079 1.06421 15.892 1.97727 17.1777C2.37095 17.7356 2.80103 18.267 3.2647 18.7683C2.83588 18.7677 2.41117 18.8517 2.01487 19.0155C1.61858 19.1793 1.25849 19.4197 0.955231 19.7229C0.651972 20.0261 0.4115 20.3861 0.247587 20.7823C0.0836734 21.1786 -0.000460826 21.6033 1.89834e-06 22.0321V26.8549ZM15.4649 20.5258L15.8182 20.1576V17.4501H14.0606V20.5258H12.303V17.4501H10.5455V20.5258H8.78788V17.4501H7.0303V20.1576L7.38358 20.5258H3.26382C2.43161 20.5258 1.75758 21.1999 1.75758 22.0321V23.3283C1.94564 23.4381 2.1337 23.5348 2.32264 23.6183C4.19446 24.4584 6.06539 24.0753 7.93721 22.4715C10.3943 24.5779 12.8514 24.5779 15.3094 22.4715C17.1812 24.0761 19.0521 24.4575 20.9239 23.6192C20.98 23.5937 21.0357 23.5673 21.0909 23.5401V22.0321C21.0909 21.1999 20.4169 20.5258 19.5847 20.5258H15.4649ZM21.0909 12.2037C21.0909 13.2477 20.5197 14.5211 19.756 15.6925H3.09246C2.32791 14.5211 1.75758 13.2477 1.75758 12.2037V9.73082C9.09194 11.1369 13.6344 11.1562 21.0909 9.64997V12.2037ZM21.0909 7.85548C13.5474 9.40918 9.18861 9.39072 1.75758 7.94072V1.75758H21.0909V7.85636V7.85548ZM19.1804 28.6124C19.644 28.6085 20.0872 28.4216 20.4136 28.0924C20.74 27.7632 20.9231 27.3184 20.9231 26.8549V25.4998C20.3006 25.7034 19.6499 25.8078 18.995 25.8091C17.6812 25.8091 16.4491 25.3864 15.3085 24.6597C14.1687 25.3864 12.9358 25.8091 11.6228 25.8091C10.3091 25.8091 9.077 25.3855 7.93721 24.6597C6.79742 25.3855 5.56449 25.8091 4.2507 25.8091C3.59576 25.8078 2.94512 25.7034 2.32264 25.4998V26.8549C2.32262 27.3184 2.50574 27.7632 2.83213 28.0924C3.15851 28.4216 3.60173 28.6085 4.06527 28.6124H19.1804Z" fill="#4A71D3"/>
</svg>
