<svg width="34" height="29" viewBox="0 0 34 29" fill="none" xmlns="http://www.w3.org/2000/svg">
<path d="M21.0853 0C21.2434 0 21.4016 0 21.5597 0C22.1922 0.101289 22.6667 0.405157 23.0884 0.810313C25.1969 2.88674 27.3581 4.96317 29.4667 7.0396C29.6775 7.24218 29.8357 7.29282 30.1519 7.29282C30.7845 7.29282 31.3643 7.29282 31.9969 7.29282C32.4713 7.34347 32.7876 7.64733 32.7876 8.05249C32.7876 8.45765 32.4713 8.76151 31.9442 8.76151C31.6806 8.76151 31.3643 8.76151 31.1008 8.76151C30.7318 8.71087 30.6264 8.8628 30.5736 9.16667C30.4155 10.3821 30.2047 11.6483 30.0465 12.8637C29.6248 15.4972 29.2558 18.1814 28.8341 20.8149C28.7814 21.0175 28.8868 21.0681 29.0977 21.1188C29.8357 21.1694 30.0465 21.372 30.0465 22.081C30.0465 22.7901 30.0465 23.5497 30.0465 24.2588C30.0465 25.0691 29.7829 25.3223 28.9395 25.3223C28.2543 25.3223 27.569 25.3223 26.8837 25.3223C26.6202 25.3223 26.5147 25.3729 26.6202 25.6768C26.7783 26.1326 26.7783 26.5378 26.6729 26.9936C26.5674 27.3481 26.5674 27.3481 26.9891 27.3481C28.9395 27.3481 30.8899 27.3481 32.8403 27.3481C33.0512 27.3481 33.262 27.3481 33.4202 27.3987C33.7891 27.5 34 27.7532 34 28.0571C34 28.4116 33.7891 28.6648 33.4729 28.7661C33.262 28.8168 33.0512 28.8168 32.8403 28.8168C26.9364 28.8168 21.0326 28.8168 15.1287 28.8168C10.4372 28.8168 5.74574 28.8168 1.05426 28.8168C0.632558 28.8168 0.263566 28.7661 0 28.361C0 28.1584 0 27.9558 0 27.8039C0.263566 27.3987 0.685271 27.3481 1.10698 27.3481C3.11008 27.3481 5.06047 27.3481 7.06357 27.3481C7.32713 27.3481 7.43256 27.2974 7.32713 27.0442C7.16899 26.5884 7.22171 26.1326 7.32713 25.6768C7.43256 25.3223 7.43256 25.3223 7.06357 25.3223C6.37829 25.3223 5.69302 25.3223 4.95504 25.3223C4.21705 25.3223 3.95349 25.0184 3.95349 24.3094C3.95349 23.6004 3.95349 22.8914 3.95349 22.1317C3.95349 21.3214 4.11163 21.1188 4.95504 21.0681C5.11318 21.0681 5.21861 21.0175 5.16589 20.8149C5.00775 19.802 4.84961 18.7385 4.69147 17.7256C4.37519 15.7505 4.11163 13.7753 3.79535 11.8002C3.74264 10.9899 3.5845 10.0783 3.47907 9.11603C3.42636 8.8628 3.32093 8.76151 3.05736 8.76151C2.74109 8.76151 2.37209 8.76151 2.05581 8.76151C1.5814 8.71087 1.31783 8.407 1.31783 8.05249C1.31783 7.64733 1.5814 7.39411 2.05581 7.34347C2.68837 7.29282 3.26822 7.29282 3.90078 7.34347C4.21705 7.34347 4.53333 7.24218 4.7969 7.09024C6.11473 6.17864 7.37985 5.31768 8.69767 4.40608C9.64651 3.7477 10.5426 3.7477 11.4388 4.40608C11.8605 4.70995 12.2822 4.96317 12.7039 5.26704C12.9147 5.41897 13.0202 5.36833 13.1783 5.21639C13.7054 4.70995 14.2326 4.25415 14.7597 3.79834C15.3395 3.2919 15.9721 3.08932 16.7101 3.2919C16.9209 3.34254 17.0791 3.2919 17.2372 3.13996C17.9752 2.3803 18.7659 1.67127 19.5566 0.911603C19.9783 0.405157 20.4527 0.101289 21.0853 0ZM17.0264 14.1805C13.4419 14.1805 9.91008 14.1805 6.32558 14.1805C6.22016 14.1805 6.11473 14.1805 6.0093 14.1805C5.79845 14.1805 5.74574 14.2818 5.79845 14.4844C5.85116 14.7882 5.90388 15.0921 5.95659 15.3453C6.06202 15.8011 6.06202 15.8011 6.53643 15.8011C9.33023 15.8011 12.124 15.8011 14.9705 15.8011C15.1814 15.8011 15.3922 15.8011 15.6558 15.8518C16.0248 15.9024 16.2357 16.1556 16.2884 16.5101C16.3411 16.814 16.0775 17.1179 15.7612 17.2192C15.6031 17.2698 15.3922 17.2698 15.1814 17.2698C12.3349 17.2698 9.54109 17.2698 6.69457 17.2698C6.27287 17.2698 6.27287 17.2698 6.32558 17.675C6.48372 18.6879 6.64186 19.7007 6.8 20.7136C6.85271 21.2201 6.90543 21.2201 7.37985 21.2201C13.8109 21.2201 20.2946 21.2201 26.7256 21.2201C26.7783 21.2201 26.8837 21.2201 26.9364 21.2201C27.1473 21.2201 27.2527 21.1188 27.2527 20.9162C27.4109 19.8527 27.569 18.7385 27.7271 17.675C27.7798 17.3711 27.6744 17.3204 27.4109 17.3204C26.2512 17.3204 25.0915 17.3204 23.9318 17.3204C23.7736 17.3204 23.6155 17.3204 23.4574 17.2698C23.1411 17.1685 22.8775 16.8646 22.9302 16.5608C22.9829 16.2063 23.1938 15.953 23.5628 15.9024C23.8264 15.8518 24.0899 15.8518 24.3535 15.8518C25.4605 15.8518 26.5674 15.8518 27.6217 15.8518C27.8853 15.8518 28.0961 15.8011 28.0961 15.4972C28.0961 15.244 28.2016 14.9402 28.2016 14.6869C28.2543 14.2311 28.2543 14.2311 27.7798 14.2311C24.2481 14.1805 20.6109 14.1805 17.0264 14.1805ZM17.0264 8.81216C13.1783 8.81216 9.38295 8.81216 5.53488 8.81216C5.42946 8.81216 5.32403 8.81216 5.21861 8.81216C5.00775 8.81216 4.90233 8.91345 4.95504 9.11603C5.11318 10.1796 5.27132 11.1925 5.42946 12.256C5.48217 12.7118 5.53488 12.7118 6.0093 12.7118C13.3364 12.7118 20.6109 12.7118 27.938 12.7118C27.9907 12.7118 28.0961 12.7118 28.1488 12.7118C28.3597 12.7118 28.4651 12.6105 28.5178 12.4079C28.676 11.3444 28.8341 10.3315 28.9922 9.3186C29.045 8.81216 29.045 8.81216 28.5705 8.81216C24.7225 8.81216 20.8744 8.81216 17.0264 8.81216ZM16.9736 23.9042C20.5054 23.9042 24.0899 23.9042 27.6217 23.9042C28.5705 23.9042 28.4124 24.0055 28.4651 23.0939C28.4651 22.5875 28.4651 22.5875 27.938 22.5875C20.769 22.5875 13.6 22.5875 6.37829 22.5875C5.42946 22.5875 5.53488 22.4356 5.53488 23.3978C5.53488 23.8536 5.53488 23.8536 6.0093 23.8536C9.69923 23.9042 13.3364 23.9042 16.9736 23.9042ZM27.4636 7.29282C27.4636 7.14089 27.4109 7.14089 27.3581 7.09024C25.5132 5.31768 23.7209 3.54512 21.876 1.77256C21.4543 1.3674 21.1907 1.3674 20.769 1.77256C20.031 2.48158 19.293 3.24125 18.5023 3.95028C18.2915 4.15286 18.3442 4.25415 18.5023 4.40608C19.5039 5.26704 20.4527 6.17864 21.4543 7.0396C21.6124 7.19153 21.8233 7.24218 22.0868 7.24218C23.1411 7.24218 24.1953 7.24218 25.2496 7.24218C25.9876 7.29282 26.7256 7.29282 27.4636 7.29282ZM17.0264 27.4494C18.5023 27.4494 19.9783 27.4494 21.4543 27.4494C21.7705 27.4494 21.8233 27.3987 21.7178 27.0949C21.5597 26.6391 21.5597 26.2339 21.7178 25.7781C21.8233 25.5249 21.7705 25.4236 21.4543 25.4236C18.4496 25.4236 15.4977 25.4236 12.493 25.4236C12.2295 25.4236 12.1767 25.5249 12.2822 25.7781C12.4403 26.2339 12.4403 26.6897 12.2822 27.1455C12.1767 27.4494 12.2822 27.5 12.5984 27.5C14.0744 27.4494 15.5504 27.4494 17.0264 27.4494ZM13.1256 7.29282C15.2868 7.29282 17.3426 7.29282 19.3984 7.29282C19.3457 7.24218 19.3457 7.19153 19.3457 7.19153C18.5023 6.43186 17.6589 5.67219 16.7628 4.91253C16.4465 4.60866 16.1302 4.60866 15.7612 4.91253C15.3395 5.26704 14.9178 5.67219 14.4961 6.02671C14.0744 6.38122 13.6 6.83702 13.1256 7.29282ZM7.16899 7.24218V7.29282C8.32868 7.29282 9.48837 7.29282 10.6481 7.29282C10.7535 7.29282 10.8589 7.24218 10.9116 7.19153C11.1225 6.98895 11.386 6.78638 11.5969 6.5838C11.7023 6.48251 11.755 6.38122 11.5969 6.27993C11.2279 6.02671 10.8062 5.77348 10.4372 5.52026C10.1736 5.36833 9.96279 5.36833 9.69922 5.52026C8.85581 6.07735 8.0124 6.63444 7.16899 7.24218ZM9.85736 27.4494C10.4372 27.4494 10.9116 27.0442 10.9116 26.4871C10.9116 25.93 10.4899 25.4742 9.91008 25.4742C9.33023 25.4742 8.85581 25.8794 8.85581 26.4365C8.8031 26.9936 9.27752 27.3987 9.85736 27.4494ZM24.1953 25.4742C23.6155 25.4742 23.1411 25.8794 23.1411 26.4365C23.1411 26.9429 23.5628 27.3987 24.1426 27.4494C24.7225 27.4494 25.1969 27.0442 25.1969 26.4871C25.2496 25.93 24.7752 25.4742 24.1953 25.4742Z" fill="#4A71D3"/>
</svg>
