<svg width="32" height="26" viewBox="0 0 32 26" fill="none" xmlns="http://www.w3.org/2000/svg">
<path d="M6.82101e-06 7.84526C0.149075 6.99033 0.248454 6.18568 0.546591 5.38104C1.24224 3.36944 2.43479 1.70986 4.37268 0.75435C6.50932 -0.301743 8.64597 -0.150872 10.7329 0.85493C13.2174 2.0116 14.9068 4.02321 16.1491 6.48743C16.5466 7.34236 16.8944 8.19729 17.1429 9.10251C17.1926 9.35396 17.2919 9.40425 17.4907 9.25338C18.9814 8.39845 20.5217 7.79497 22.2112 7.59381C24.8944 7.19149 27.4286 7.54352 29.5652 9.30367C31.205 10.6112 32 12.3714 32.0497 14.4836C32.0994 16.9981 31.1056 19.1103 29.5652 20.971C27.2795 23.7369 24.3478 25.3965 20.8696 25.8994C18.6832 26.2012 16.5963 25.9497 14.6584 24.8433C13.4162 24.1393 12.5217 23.1335 11.8758 21.8259C11.7764 21.6248 11.677 21.5242 11.4286 21.5745C9.59007 21.9265 7.90063 21.5242 6.31057 20.619C3.57765 19.06 1.88821 16.6963 0.795038 13.7795C0.397522 12.6731 0.149075 11.5667 6.82101e-06 10.4101C6.82101e-06 10.3598 6.82101e-06 10.3095 -0.0496826 10.3095C6.82101e-06 9.45454 6.82101e-06 8.6499 6.82101e-06 7.84526ZM13.118 18.8085C13.1677 19.3114 13.2174 19.8646 13.3665 20.4178C13.4162 20.619 13.5155 20.7195 13.7143 20.6692C14.2609 20.5687 14.7578 20.4681 15.3044 20.4178C16.8944 20.1663 18.2857 19.5126 19.3789 18.3559C19.9752 17.7021 20.4224 16.8975 20.7702 16.0928C21.6646 14.1818 23.1056 12.7737 24.9938 11.8685C25.8882 11.4662 26.882 11.265 27.8261 11.1141C27.9752 11.1141 28.1739 11.1644 28.2236 11.0135C28.2733 10.8627 28.0249 10.7621 27.9255 10.7118C26.2857 9.55512 24.4969 9.30367 22.6087 9.60541C19.4783 9.95745 16.8944 11.5164 14.9068 14.0812C13.8137 15.4391 13.2174 16.9981 13.118 18.8085ZM4.37268 3.0677C3.92547 3.31915 3.67703 3.67118 3.42858 4.02321C2.23603 5.63249 1.88821 7.49323 1.93789 9.45454C1.98758 11.3153 2.48448 13.1257 3.37889 14.7853C4.42237 16.7466 5.86336 18.3056 7.95032 19.2611C8.84473 19.6634 9.83852 19.8143 10.8323 19.7137C11.2298 19.6634 11.2795 19.6132 11.2298 19.2108C11.1801 18.9594 11.1801 18.6576 11.2298 18.4062C11.2795 17.6518 11.2795 16.8472 11.1304 16.0928C10.7826 14.2321 9.83852 12.7737 8.29814 11.7176C7.50311 11.1644 6.75777 10.5106 6.1615 9.70599C4.96895 8.147 4.37268 6.33656 4.37268 4.37524C4.37268 3.97292 4.37268 3.52031 4.37268 3.0677ZM30.0621 14.735C30.0621 14.1315 30.0124 13.5783 29.8137 12.9749C29.764 12.8743 29.7143 12.7234 29.5652 12.7737C28.5714 12.9749 27.5776 13.0251 26.5839 13.3269C24.5466 13.9807 23.2547 15.3888 22.3603 17.3501C21.4658 19.3617 19.9752 20.7698 17.9876 21.675C17.0435 22.0774 16.0497 22.2785 15.0559 22.4294C15.0062 22.4294 14.9068 22.4294 14.8571 22.4797C14.8571 22.5803 14.9068 22.5803 15.0062 22.6306C15.205 22.7814 15.4037 22.9323 15.6025 23.0329C17.2422 23.9884 19.0311 24.1393 20.8199 23.8375C23.8012 23.3346 26.2857 21.8762 28.1739 19.5126C29.3168 18.1547 30.0124 16.5957 30.0621 14.735ZM12.5714 13.9807C12.6211 13.9304 12.6708 13.9304 12.6708 13.8801C13.3665 12.7234 14.2609 11.6673 15.3044 10.7621C15.4534 10.6615 15.4534 10.5106 15.4037 10.3095C15.3044 9.70599 15.1056 9.1528 14.9068 8.59961C14.0621 6.33656 12.7702 4.37524 10.7329 3.0677C9.54038 2.26305 8.24845 1.86073 6.75777 2.0116C6.36026 2.06189 6.31057 2.06189 6.31057 2.46421C6.31057 3.0677 6.31057 3.67118 6.31057 4.27466C6.31057 4.72727 6.31057 5.17988 6.40994 5.63249C6.80746 7.44294 7.75156 8.90135 9.29193 9.95745C9.88821 10.3598 10.4348 10.8124 10.882 11.3153C11.5776 12.1199 12.1242 12.9749 12.5714 13.9807Z" fill="#4A71D3"/>
</svg>
