<svg width="29" height="29" viewBox="0 0 29 29" fill="none" xmlns="http://www.w3.org/2000/svg">
<path d="M13.8438 0.28125C6.51562 0.28125 0.28125 6.84375 0.28125 14.5C0.28125 22.1562 6.51563 28.7188 13.7344 28.7188H15.7031C21.2812 28.7188 26.4219 25 28.6094 19.9688H26.3125C24.3744 23.5398 20.7213 26.1572 16.6875 26.493V24.5614C16.6875 23.1308 17.2978 21.8511 18.4025 21.0855L18.4353 21.0647L18.7405 20.8208C19.2906 20.9739 19.8834 21.0625 20.5156 21.0625C22.4297 21.0625 24.0047 20.3056 25.0252 19.1572C26.0456 18.0087 26.5312 16.5212 26.5312 15.0469C26.5312 13.5736 26.0456 12.085 25.0252 10.9366C24.1655 9.96969 22.9098 9.28719 21.3939 9.09359C21.1653 8.17484 20.7562 7.29547 20.1033 6.56156C19.0828 5.41312 17.5078 4.65625 15.5938 4.65625C13.6797 4.65625 12.1047 5.41312 11.0842 6.56156C10.4312 7.29547 10.0222 8.17375 9.79359 9.09359C8.27766 9.28719 7.02203 9.96969 6.16234 10.9366C5.14187 12.085 4.65625 13.5725 4.65625 15.0469C4.65625 16.5202 5.14187 18.0087 6.16234 19.1572C7.18281 20.3056 8.75781 21.0625 10.6719 21.0625C11.3041 21.0625 11.8969 20.9728 12.447 20.8219L12.7533 21.0647L12.785 21.0866C13.8897 21.8522 14.5 23.1308 14.5 24.5614V26.5312H13.8438C7.60938 26.5312 2.46875 21.0625 2.46875 14.5C2.46875 7.9375 7.60938 2.46875 13.7344 2.46875H15.7031C20.0781 2.46875 24.2344 5.20312 26.2031 9.03125H28.7188C26.5312 4 21.3906 0.28125 15.8125 0.28125H13.8438ZM15.5938 6.84375C16.9609 6.84375 17.8469 7.31734 18.467 8.01406C18.7613 8.34547 18.9855 8.74031 19.1462 9.16797C17.848 9.43484 16.7717 10.0758 16.0061 10.9366C15.8582 11.1058 15.7205 11.2836 15.5938 11.4692C15.467 11.2836 15.3293 11.1058 15.1814 10.9366C14.4158 10.0758 13.3395 9.43484 12.0413 9.16797C12.202 8.74141 12.4263 8.34547 12.7205 8.01406C13.3406 7.31734 14.2266 6.84375 15.5938 6.84375ZM9.63281 11.3336C9.75859 12.5837 10.2169 13.8055 11.0842 14.7822C11.8498 15.643 12.9261 16.2839 14.2244 16.5508C14.0636 16.9773 13.8394 17.3733 13.5452 17.7047C12.925 18.4014 12.0391 18.875 10.6719 18.875C9.30469 18.875 8.41875 18.4014 7.79859 17.7047C7.17844 17.0069 6.84375 16.0345 6.84375 15.0469C6.84375 14.0592 7.17844 13.0869 7.79859 12.3891C8.24375 11.8892 8.83437 11.5119 9.63391 11.3336H9.63281ZM21.5547 11.3336C22.3531 11.5119 22.9438 11.8892 23.3889 12.3891C24.0091 13.0869 24.3438 14.0592 24.3438 15.0469C24.3438 16.0345 24.0091 17.0069 23.3889 17.7047C22.7688 18.4014 21.8828 18.875 20.5156 18.875C19.1484 18.875 18.2625 18.4014 17.6423 17.7047C17.3471 17.3649 17.1169 16.9738 16.9631 16.5508C18.2614 16.2839 19.3377 15.643 20.1033 14.7822C20.9706 13.8066 21.4289 12.5837 21.5536 11.3336H21.5547ZM11.8258 11.3708C12.5619 11.5589 13.123 11.9144 13.5452 12.3891C14.0177 12.9206 14.3217 13.613 14.4398 14.348C13.7037 14.1598 13.1427 13.8044 12.7205 13.3297C12.248 12.7981 11.9439 12.1058 11.8258 11.3708ZM19.3617 11.3708C19.2425 12.1058 18.9395 12.7981 18.467 13.3286C18.0448 13.8044 17.4837 14.1598 16.7477 14.348C16.8669 13.613 17.1698 12.9206 17.6423 12.3902C18.0645 11.9144 18.6256 11.5589 19.3617 11.3708ZM15.5938 18.6234C15.7217 18.8072 15.8563 18.9866 16.0061 19.1561C16.1931 19.3661 16.4042 19.5586 16.6273 19.7412C16.2205 20.1503 15.8978 20.6272 15.5938 21.1128C15.2897 20.6272 14.967 20.1503 14.5602 19.7412C14.7833 19.5586 14.9944 19.3661 15.1814 19.1561C15.3293 18.9869 15.467 18.809 15.5938 18.6234Z" fill="#4A71D3"/>
</svg>
