<svg width="35" height="20" viewBox="0 0 35 20" fill="none" xmlns="http://www.w3.org/2000/svg">
<path d="M7.03986 0.0655518C14.0797 0.0655518 21.186 0.0655518 28.2258 0.0655518C29.4213 0.262273 30.2846 0.918011 30.9488 1.90162C32.2771 4.06555 32.1442 7.14752 30.6167 9.18031C30.5503 9.24588 30.4839 9.31145 30.4839 9.37703C30.5503 9.50817 30.6831 9.4426 30.7495 9.4426C31.148 9.4426 31.4801 9.37703 31.8786 9.50817C33.0076 9.77047 33.7382 10.4918 34.2695 11.4098C34.7344 12.1311 34.9336 12.9836 35.0664 13.836C35.0664 14.4262 35.0664 15.0164 35.0664 15.541C35 15.7377 35 15.9344 34.9336 16.1967C34.4687 18.7541 32.9412 20 30.3511 20C23.6433 20 16.9355 20 10.2277 20C8.23531 20 6.2429 20 4.25049 20C3.05504 20 2.12525 19.541 1.3947 18.6229C-0.265639 16.5901 -0.265639 13.0492 1.26188 10.9508C1.99243 9.96719 2.92222 9.37703 4.25049 9.4426C4.44973 9.4426 4.64897 9.50817 4.7818 9.37703C3.38711 7.54096 2.98863 5.50817 3.65277 3.27867C4.11766 1.7049 5.04745 0.327847 7.03986 0.0655518ZM22.1822 18.8852C25.1044 18.8852 28.093 18.8852 31.0152 18.8852C31.7457 18.8852 32.3435 18.6229 32.8084 18.0983C33.4061 17.4426 33.6717 16.6557 33.871 15.8033C33.9374 15.2787 33.9374 15.2787 33.4061 15.2787C29.7533 15.2787 26.1006 15.2787 22.5142 15.2787C22.315 15.2787 22.1822 15.2787 21.9829 15.2787C21.6509 15.2131 21.4516 14.9508 21.4516 14.6885C21.518 14.3606 21.7173 14.2295 22.0494 14.1639C22.1822 14.1639 22.315 14.1639 22.4478 14.1639C26.0342 14.1639 29.6869 14.1639 33.2733 14.1639C33.4061 14.1639 33.4725 14.1639 33.6053 14.1639C33.8046 14.1639 33.9374 14.0983 33.871 13.836C33.7382 13.1147 33.5389 12.459 33.2068 11.8033C32.6755 10.9508 31.945 10.4918 30.8824 10.4918C25.038 10.4918 19.1936 10.4918 13.3492 10.4918C13.2827 10.4918 13.1499 10.4918 13.0835 10.4918C13.0171 10.4918 12.9507 10.4918 12.9507 10.6229C13.0171 11.0164 13.6812 11.4754 14.0797 11.4754C17.6661 11.4754 21.2524 11.4754 24.9051 11.4754C25.1708 11.4754 25.37 11.4754 25.6357 11.541C25.9678 11.6065 26.1006 11.8033 26.1006 12.0656C26.1006 12.3934 25.9013 12.5246 25.5693 12.5901C25.4364 12.5901 25.3036 12.5901 25.1708 12.5901C21.6509 12.5901 18.1309 12.5901 14.6774 12.5901C14.611 12.5901 14.4782 12.5901 14.4118 12.5901C14.1461 12.5901 14.0797 12.7213 14.1461 12.918C14.2125 13.1803 14.279 13.4426 14.279 13.7049C14.3454 13.9672 14.4118 14.0983 14.7438 14.0983C15.408 14.0983 16.0721 14.0983 16.7363 14.0983C17.1347 14.0983 17.4668 14.0983 17.8653 14.0983C18.1974 14.0983 18.3966 14.2951 18.3966 14.6229C18.3966 14.9508 18.2638 15.1475 17.9317 15.2131C17.7989 15.2787 17.666 15.2787 17.4668 15.2787C16.537 15.2787 15.6072 15.2787 14.7438 15.2787C14.4118 15.2787 14.279 15.4098 14.279 15.6721C14.1461 16.7213 13.7476 17.6393 13.1499 18.4918C13.0835 18.5574 12.9507 18.6885 13.0171 18.8197C13.0835 18.9508 13.2163 18.8852 13.3492 18.8852C16.205 18.8852 19.1936 18.8852 22.1822 18.8852ZM9.56358 1.24588C9.63 1.31145 9.63 1.37703 9.69641 1.4426C10.3605 2.29506 10.759 3.21309 10.8919 4.26227C10.9583 4.85244 11.0247 4.85244 11.6224 4.85244C14.611 4.85244 17.5996 4.85244 20.6547 4.85244C20.8539 4.85244 21.0531 4.85244 21.2524 4.85244C21.7173 4.91801 21.9165 5.11473 21.9165 5.4426C21.9165 5.77047 21.6509 5.96719 21.2524 5.96719C20.5218 5.96719 19.7913 5.96719 19.0607 5.96719C16.4706 5.90162 13.9469 5.90162 11.4232 5.90162C11.2239 5.90162 10.9583 5.90162 10.9583 6.22949C10.8919 7.34424 10.427 8.32785 9.76282 9.24588C9.69641 9.31145 9.56358 9.37703 9.63 9.57375C10.6926 9.57375 11.6888 9.57375 12.7514 9.57375C17.7325 9.57375 22.7135 9.57375 27.6945 9.57375C28.3587 9.57375 29.0228 9.37703 29.4877 8.85244C29.6205 8.72129 29.8198 8.65571 29.6869 8.45899C29.6205 8.32785 29.4213 8.39342 29.2884 8.39342C24.5067 8.39342 19.7913 8.39342 15.0095 8.39342C14.8103 8.39342 14.611 8.39342 14.4118 8.32785C14.1461 8.26227 14.0133 8.06555 14.0133 7.73768C14.0133 7.47539 14.2125 7.27867 14.4782 7.27867C14.611 7.27867 14.8103 7.27867 14.9431 7.27867C19.9241 7.27867 24.9051 7.27867 29.9526 7.27867C30.2846 7.27867 30.4839 7.14752 30.5503 6.81965C30.7495 5.77047 30.816 4.78686 30.5503 3.73768C30.3511 3.40981 30.2182 3.27867 29.8198 3.27867C26.0342 3.27867 22.2486 3.27867 18.5294 3.27867C18.3966 3.27867 18.2638 3.27867 18.1309 3.27867C17.7989 3.21309 17.666 3.01637 17.666 2.75408C17.666 2.49178 17.8653 2.29506 18.1309 2.22949C18.2638 2.22949 18.3966 2.22949 18.5294 2.22949C20.9867 2.22949 23.5105 2.22949 25.9678 2.22949C27.0968 2.22949 28.2922 2.22949 29.4213 2.22949C29.4877 2.22949 29.6205 2.29506 29.6869 2.16391C29.6869 2.09834 29.6205 2.03276 29.5541 1.96719C29.0892 1.4426 28.4915 1.24588 27.8273 1.24588C21.8501 1.24588 15.9393 1.24588 9.96207 1.24588C9.82924 1.18031 9.69641 1.11473 9.56358 1.24588ZM1.26188 14.7541C1.26188 14.9508 1.26188 15.1475 1.26188 15.3442C1.3947 16.459 1.72677 17.5737 2.65656 18.3606C3.45353 19.0819 4.38332 19.0819 5.18028 18.3606C5.51235 18.0983 5.778 17.7705 5.97725 17.377C6.57497 16.1967 6.77421 14.9508 6.57497 13.7049C6.44214 12.7213 6.04366 11.8033 5.2467 11.0819C4.51615 10.4262 3.58635 10.4262 2.78939 11.0164C2.59015 11.1475 2.39091 11.3442 2.25808 11.6065C1.52753 12.5246 1.26188 13.5737 1.26188 14.7541ZM9.89565 5.37703C9.82924 4.1967 9.63 3.01637 8.83303 2.09834C7.90324 0.918011 6.50855 0.918011 5.57876 2.09834C4.91463 2.81965 4.64897 3.73768 4.51615 4.72129C4.38332 6.16391 4.64897 7.54096 5.57876 8.65571C6.50855 9.77047 7.77041 9.77047 8.70021 8.65571C9.56358 7.73768 9.82924 6.55735 9.89565 5.37703ZM13.0835 14.7541C13.0835 14.3606 13.0835 14.0328 13.0171 13.7049C12.8179 12.7869 12.4858 11.8688 11.7552 11.2131C10.9583 10.4262 9.89565 10.4262 9.09869 11.2131C8.83303 11.4754 8.56738 11.8033 8.36814 12.1311C7.77041 13.2459 7.63759 14.4918 7.83683 15.7377C7.96966 16.5901 8.23531 17.3115 8.76662 17.9672C9.82924 19.2131 11.1575 19.1475 12.1537 17.9016C12.8179 16.918 13.0835 15.8688 13.0835 14.7541ZM6.30931 10.6229C6.7078 11.0819 6.97345 11.4754 7.2391 12C7.50476 11.4754 7.77041 11.0819 8.10248 10.6229C7.43835 10.6229 6.90704 10.6229 6.30931 10.6229ZM7.17269 17.5082C6.90704 18.0328 6.64138 18.4262 6.30931 18.8852C6.90704 18.8852 7.43835 18.8852 8.03607 18.8852C7.704 18.4262 7.43835 18.0328 7.17269 17.5082Z" fill="#4A71D3"/>
</svg>
