<svg width="166" height="26" viewBox="0 0 166 26" fill="none" xmlns="http://www.w3.org/2000/svg">
<g clip-path="url(#clip0_206_1308)">
<path d="M10.624 11.4077C7.23887 11.4077 3.85377 11.4077 0.416598 11.4077C0.286402 11.6426 0.156206 11.8514 -2.91355e-05 12.1125C-2.91355e-05 12.5301 0.0260101 13.0261 -2.91355e-05 13.5221C-0.0260684 14.0442 0.36452 14.488 0.182245 14.984C0.36452 15.1667 0.520755 15.3233 0.70303 15.506C2.36954 15.506 4.06209 15.506 5.75464 15.506C7.18679 15.506 8.61895 15.506 10.0511 15.506C10.3115 15.506 10.5719 15.506 10.7542 15.1667C10.7542 14.8795 10.7542 14.5402 10.7542 14.3313C10.9625 14.0442 11.1187 13.8876 11.2229 13.757C12.4467 13.757 13.6185 13.757 14.7642 13.757C15.259 14.1486 15.285 14.6968 15.259 15.1928C15.3631 15.3233 15.4673 15.4016 15.5454 15.506C18.8003 15.506 22.0552 15.506 25.284 15.506C25.4403 15.3494 25.5965 15.1928 25.8048 14.984C25.5965 14.6185 25.9871 14.3313 25.9871 13.9398C25.9611 13.5221 25.9611 13.0783 25.9871 12.6607C26.0131 12.1386 25.8569 11.747 25.4924 11.3815C23.5394 11.3815 21.6125 11.3815 19.6596 11.3815C18.3576 11.3815 17.0557 11.3815 15.7537 11.3815C15.4933 11.3815 15.2329 11.3815 15.0506 11.0422C15.0506 10.755 15.0506 10.4157 15.0506 10.0502C15.0246 10.0763 14.9725 10.1024 14.9465 10.1285C14.8163 9.9458 14.6861 9.76307 14.5819 9.60645C13.5143 9.60645 12.4988 9.60645 11.5093 9.60645C11.4833 9.60645 11.4572 9.63255 11.4312 9.63255C10.9885 10.2591 10.9885 10.2591 10.9364 11.0944C10.8583 11.1727 10.7802 11.251 10.624 11.4077Z" fill="#1C3472"/>
<path d="M132.826 10.1285C133.191 10.4679 133.477 10.9377 133.998 11.0944C134.571 11.251 135.117 11.4076 135.742 11.3815C136.654 11.3293 137.539 11.3815 138.555 11.3815C138.32 11.7992 138.216 12.1385 138.294 12.5562C133.842 12.5562 129.467 12.5562 125.014 12.5562C124.728 13.7309 124.467 14.8795 124.181 16.0542C127.019 16.1847 129.779 15.8976 132.54 16.263C133.659 16.4197 134.753 16.1586 135.873 16.0803C136.654 16.0281 137.435 16.0542 138.216 16.0803C139.023 16.1064 139.726 15.9759 140.429 15.506C141.185 15.01 141.784 14.4879 142.2 13.6526C142.565 12.9217 142.669 12.1385 142.981 11.4337C143.138 11.0683 143.164 10.7028 143.164 10.3373C143.164 9.91967 143.164 9.502 143.164 9.11043C142.799 8.9016 142.799 8.43172 142.487 8.27509C141.862 7.96184 141.211 7.67469 140.482 7.67469C138.008 7.64858 135.534 7.67469 133.086 7.67469C133.008 7.753 132.878 7.83131 132.878 7.90963C132.774 8.24898 132.696 8.61445 132.618 8.97991C132.488 9.37148 132.826 9.73694 132.826 10.1285Z" fill="#1C3472"/>
<path d="M6.84829 8.5361C7.21283 8.27506 7.60342 8.24895 8.02005 8.24895C11.5614 8.24895 15.1027 8.24895 18.6701 8.24895C18.8263 8.40558 18.9826 8.5622 19.1388 8.74494C19.1388 9.05819 19.1388 9.37144 19.1388 9.68469C19.3211 9.86743 19.4773 10.0241 19.6596 10.2068C21.3 10.2068 22.9926 10.2068 24.6851 10.2068C24.9455 10.2068 25.2059 10.2329 25.258 10.1546C25.6486 9.24092 25.1539 8.69273 24.9195 8.11843C24.6331 7.41361 24.3987 6.60437 23.6957 6.08229C22.2635 6.08229 20.8313 6.08229 19.4252 6.08229C18.9565 5.66461 18.9044 5.14253 18.9565 4.64654C18.8524 4.51602 18.7482 4.43771 18.6961 4.3855C14.8684 4.3855 11.0666 4.3855 7.29095 4.3855C7.1868 4.48992 7.10868 4.56823 7.00452 4.67265C7.00452 4.9859 7.00452 5.32526 7.00452 5.66461C6.82225 5.84735 6.69205 5.97787 6.53581 6.13449C5.10366 6.13449 3.6715 6.13449 2.26538 6.13449C1.30193 6.91763 1.19778 8.11843 0.624913 9.08429C0.520756 9.26702 0.572834 9.52807 0.572834 9.58028C0.807187 9.86743 0.963422 10.0502 1.04154 10.1807C2.86428 10.1807 4.60891 10.1807 6.27542 10.1807C6.50978 9.99795 6.66601 9.84132 6.82225 9.7108C6.84829 9.29313 6.84829 8.90156 6.84829 8.5361Z" fill="#1C3472"/>
<path d="M121.16 2.94977C121.082 3.62848 119.832 8.56222 119.572 9.47587C118.999 11.6425 118.478 13.8353 117.932 16.0542C119.39 16.0542 120.77 16.0542 122.228 16.0542C122.15 15.7409 122.436 15.5321 122.462 15.1927C122.488 14.8534 122.541 14.4618 122.697 14.1225C123.165 13.1305 123.087 11.9558 123.582 10.9638C123.556 9.94575 124.077 9.0582 124.181 8.06624C124.207 7.80519 124.363 7.59636 124.624 7.62246C125.431 8.95379 126.186 10.2329 127.123 11.3032C128.816 11.3032 130.404 11.3032 131.967 11.3032C130.847 9.50198 129.805 7.72688 128.634 6.00399C128.321 5.53411 128.139 5.01202 127.722 4.62045C127.202 4.15057 126.707 3.62848 126.342 3.23692C125.405 2.79314 124.572 2.94977 123.738 2.92366C122.905 2.94977 122.02 2.94977 121.16 2.94977Z" fill="#1C3472"/>
<path d="M10.4417 17.8815C7.4472 17.8815 4.42665 17.8815 1.43215 17.8815C1.32799 18.0121 1.24987 18.0904 1.17175 18.1948C1.61442 19.5 2.55183 20.4659 3.25489 21.5101C3.56736 21.8755 3.95795 21.7711 4.3225 21.7711C6.3796 21.7711 8.41066 21.7711 10.4678 21.7711C10.5719 21.6667 10.65 21.5884 10.7542 21.484C10.7542 21.0663 10.7021 20.6225 11.0146 20.2309C12.3165 20.2309 13.6445 20.2309 14.9725 20.2309C15.1548 20.753 15.1027 21.3534 15.4673 21.745C17.8889 21.745 20.2585 21.745 22.602 21.745C23.4613 20.6747 24.2946 19.6044 24.7633 18.2992C24.4769 18.3253 24.7112 17.9599 24.5289 17.8815C21.7948 17.8815 19.0607 17.8815 16.3526 17.8815C15.8579 17.8815 15.4152 17.7771 15.0507 17.3595C15.0507 17.0462 15.0507 16.7068 15.0507 16.3936C14.9465 16.2892 14.8684 16.2109 14.7642 16.1064C14.608 16.1064 14.4257 16.1064 14.2174 16.1064C13.2019 16.1064 12.2124 16.1064 11.2229 16.1064C10.8844 16.498 10.9365 16.9418 10.9365 17.3334C10.7542 17.5161 10.5979 17.6727 10.4417 17.8815Z" fill="#1C3472"/>
<path d="M62.6764 12.5561C62.2077 12.2951 62.2598 11.9296 62.3639 11.6425C62.5201 11.1987 62.5983 10.7549 62.7285 10.3111C62.9368 9.5019 63.1972 8.69266 63.4315 7.88343C62.9628 7.57017 62.9628 7.57017 59.083 7.64849C58.7184 7.85732 58.9007 8.24889 58.7705 8.50993C58.458 9.05813 58.432 9.68463 58.2758 10.2589C58.1195 10.8854 57.781 11.4597 57.8071 12.1384C57.4685 12.4778 57.7289 12.9477 57.5467 13.287C57.2081 13.9135 57.5206 14.4356 57.8071 14.9316C58.2497 15.6886 58.9788 16.0541 59.8641 16.0541C61.4265 16.0541 62.9889 16.0541 64.5512 16.0541C64.9678 16.0541 65.3324 16.0019 65.749 15.8714C66.3219 15.6886 66.7385 15.271 67.2853 15.0621C67.6759 14.9055 67.6759 14.3573 68.1186 14.2529C68.1186 13.8613 68.4831 13.6003 68.5873 13.2609C68.8737 12.2951 69.1081 11.3292 69.3685 10.3633C69.6028 9.52801 69.8372 8.69266 70.0715 7.83122C70.0455 7.80511 69.9674 7.7268 69.8632 7.62238C68.5092 7.62238 67.1031 7.62238 65.6188 7.62238C65.2022 9.03202 64.8897 10.52 64.421 11.9296C64.2648 12.1384 64.1085 12.3212 63.9783 12.4778C63.4836 12.5561 63.0409 12.5561 62.6764 12.5561Z" fill="#1C3472"/>
<path d="M37.3923 2.97583C36.559 4.17663 35.7779 5.29912 34.9706 6.47382C42.6001 6.47382 50.1775 6.47382 57.807 6.47382C58.2497 5.66459 58.2237 4.75093 58.1976 3.83728C57.9112 3.62844 57.9372 3.21077 57.7029 2.97583C50.9327 2.97583 44.1625 2.97583 37.3923 2.97583Z" fill="#1C3472"/>
<path d="M71.738 6.44771C79.1071 6.44771 86.3981 6.44771 93.8193 6.44771C94.1318 5.29912 94.5484 4.17663 94.7307 2.94972C88.325 2.94972 82.0235 2.94972 75.696 2.94972C75.5137 2.94972 75.2794 2.89751 75.1231 2.94972C74.4982 3.21076 73.8212 3.47181 73.2483 3.83727C72.6234 4.25494 72.2588 4.95976 71.8943 5.61237C71.7641 5.84731 71.5558 6.10835 71.738 6.44771Z" fill="#1C3472"/>
<path d="M71.6079 10.6506C72.5453 11.1988 73.4827 11.4337 74.4982 11.3815C75.1752 11.3554 75.8523 11.3815 76.5553 11.3815C76.6074 11.3815 76.6595 11.4337 76.7376 11.4598C76.7376 11.6687 76.7376 11.9036 76.7376 12.1125C76.6855 12.0863 76.6595 12.0602 76.6074 12.008C76.4772 12.2169 76.373 12.3996 76.2689 12.5823C74.4461 12.5823 72.7015 12.5823 70.9309 12.5823C70.5663 13.7309 70.2278 14.8795 69.9674 16.0803C72.4151 16.0803 74.8367 16.0803 77.2844 16.0803C77.4146 16.0803 77.5448 16.0803 77.649 16.0281C78.6645 15.6104 79.68 15.2189 80.305 14.1747C80.8778 13.2088 81.7111 10.8072 81.659 9.91968C81.633 9.55422 81.3205 9.29318 81.4247 8.92771C81.0601 8.53615 80.6695 8.19679 80.1487 7.98795C79.7061 7.83133 79.2634 7.6486 78.8207 7.6486C76.3731 7.59639 73.9514 7.62249 71.6339 7.62249C71.3735 7.83133 71.1912 7.98795 71.061 8.09237C71.061 8.66667 71.061 9.18876 71.061 9.63253C71.2954 10.0241 71.4516 10.3112 71.6079 10.6506Z" fill="#1C3472"/>
<path d="M165.974 16.0281C166.078 15.6626 165.688 15.5843 165.609 15.3755C165.219 14.3313 164.438 13.522 163.917 12.5562C163.318 11.4598 162.615 10.4156 161.886 9.39755C161.469 8.82325 161.287 8.09233 160.584 7.64855C159.829 7.64855 159.021 7.64855 158.214 7.64855C157.433 7.64855 156.626 7.59634 155.767 7.70076C156.808 9.52807 158.058 11.0682 158.995 12.8172C158.943 12.8433 158.943 12.8955 158.917 12.8955C157.98 12.8955 157.043 12.8955 156.079 12.8955C155.636 13.9136 155.584 14.9839 155.272 16.0281C158.865 16.0281 162.433 16.0281 165.974 16.0281Z" fill="#1C3472"/>
<path d="M105.641 7.64855C105.719 7.9096 105.641 8.09233 105.797 8.27506C106.11 8.61442 106.422 8.97988 106.631 9.39755C107.177 10.4417 107.854 11.3554 108.479 12.3473C108.61 12.5562 108.636 12.7389 108.479 12.9739C107.62 12.9739 106.761 12.9739 105.98 12.9739C105.355 13.3393 105.641 14.018 105.277 14.4096C105.433 14.9839 104.938 15.4799 105.12 16.0542C109.573 16.1586 114.989 16.1325 115.77 15.9759C115.458 15.271 114.937 14.6445 114.546 13.9658C113.609 12.3474 112.541 10.8072 111.526 9.26703C111.187 8.74494 111.005 8.14454 110.51 7.72687C110.458 7.70076 110.406 7.67466 110.302 7.64855C110.224 7.70076 110.12 7.77908 109.99 7.88349C109.365 7.46582 108.636 7.70076 107.959 7.67466C107.229 7.62245 106.474 7.64855 105.641 7.64855Z" fill="#1C3472"/>
<path d="M87.2053 16.0804C87.3616 15.8977 87.4397 15.8194 87.4918 15.6366C87.7001 14.8535 87.9865 14.0965 88.1948 13.2872C88.5073 12.1386 88.7416 10.99 89.0281 9.81535C89.1843 9.18884 89.2624 8.51013 89.5749 7.93583C89.4968 7.83141 89.3926 7.7531 89.3145 7.64868C88.0125 7.64868 86.7106 7.64868 85.4086 7.64868C85.2524 7.80531 85.0961 7.96194 84.9139 8.14467C84.9139 8.24908 84.9399 8.40571 84.9139 8.51013C84.6274 9.5282 84.315 10.5463 84.0285 11.5643C83.9244 11.9037 83.7942 12.2431 83.7161 12.6085C83.5338 13.47 83.1953 14.3053 83.1172 15.1929C82.8047 15.4539 82.9609 15.7672 82.9609 16.0543C84.4712 16.0804 85.8252 16.0804 87.2053 16.0804Z" fill="#1C3472"/>
<path d="M39.189 7.6748C38.7724 7.96195 38.7724 8.37962 38.7203 8.71898C38.4599 9.9981 38.0433 11.2511 37.7048 12.5041C37.6006 12.8696 37.4184 13.235 37.3142 13.6266C37.1059 14.4097 36.9236 15.219 36.7413 16.0543C38.2256 16.0543 39.7098 16.0543 41.142 16.0543C41.5846 15.8455 41.3503 15.4539 41.4544 15.1668C42.0013 13.8093 42.2096 12.3475 42.5741 10.9379C42.7824 10.1547 42.9126 9.31938 43.1991 8.56235C43.3293 8.2491 43.3553 7.98806 43.3032 7.6748C41.9231 7.6748 40.5431 7.6748 39.189 7.6748Z" fill="#1C3472"/>
<path d="M92.6215 16.0541C94.0797 16.0541 95.5639 16.0541 97.0221 16.0541C97.1263 15.9497 97.2044 15.8714 97.2825 15.7931C97.2044 15.1404 97.5429 14.5661 97.6471 13.9396C97.7773 13.1304 98.0897 12.3473 98.272 11.538C98.4543 10.7549 98.7147 9.97177 98.949 9.18864C99.1053 8.71876 99.4177 8.22277 99.1573 7.70068C97.7252 7.70068 96.3451 7.70068 94.939 7.70068C94.7828 7.93562 94.5744 8.11835 94.5484 8.35329C94.3661 9.47578 93.9755 10.52 93.7151 11.6425C93.4287 12.9216 93.0902 14.1746 92.6996 15.4276C92.6736 15.6103 92.5694 15.7931 92.6215 16.0541Z" fill="#1C3472"/>
<path d="M144.96 7.90973C144.83 8.19687 145.038 8.56234 144.726 8.79728C144.44 10.5202 143.841 12.1386 143.372 13.8093C143.268 14.1226 143.164 14.4358 143.164 14.8013C143.138 15.219 142.955 15.6366 142.851 16.0543C144.335 16.0543 145.794 16.0543 147.226 16.0543C147.33 15.8977 147.46 15.8455 147.486 15.6366C147.564 15.2451 147.694 14.8796 147.773 14.488C147.981 13.6527 148.189 12.8435 148.424 12.0342C148.736 10.99 148.918 9.89366 149.231 8.84949C149.361 8.43181 149.413 8.09246 149.387 7.64868C148.241 7.64868 147.122 7.67479 146.028 7.64868C145.637 7.64868 145.299 7.7531 144.96 7.90973Z" fill="#1C3472"/>
<path d="M54.0835 8.8234C53.0679 8.8234 52.1045 8.8495 51.1671 8.8234C50.9067 8.8234 50.7505 8.92782 50.6463 9.03223C50.7765 9.86758 51.0109 10.5985 51.1671 11.3816C51.3494 12.1909 51.6098 12.974 51.7399 13.7832C51.8701 14.5664 52.1045 15.3234 52.2868 16.0804C53.5887 16.0804 54.8126 16.0804 56.0104 16.0804C55.6198 14.8796 55.4636 13.7049 55.0469 12.5824C54.9948 12.4258 55.0469 12.217 55.0469 11.982C55.3073 11.9559 55.5417 11.9559 55.6979 11.9559C56.453 11.4599 56.6093 10.7029 56.8436 9.94589C57.078 9.18886 57.2342 8.45794 57.4165 7.6748C56.401 7.6748 55.4636 7.6748 54.6824 7.6748C54.422 7.88364 54.2397 8.01416 54.0835 8.14468C54.0835 8.37962 54.0835 8.56235 54.0835 8.8234Z" fill="#1C3472"/>
<path d="M103.089 16.0541C103.089 15.6103 103.428 15.2449 103.298 14.8272C103.844 13.6264 103.896 12.2951 104.287 11.042C104.495 10.4155 104.365 9.68462 104.86 9.13643C104.704 8.64044 105.277 8.19667 104.99 7.70068C103.584 7.70068 102.204 7.70068 100.824 7.70068C100.485 9.11032 100.121 10.4939 99.7823 11.8774C99.4698 13.2609 98.8969 14.5922 98.7928 16.0541C100.251 16.0541 101.657 16.0541 103.089 16.0541Z" fill="#1C3472"/>
<path d="M155.272 7.8053C154.777 7.43984 154.387 7.85751 153.918 7.70088C153.527 7.54426 153.006 7.70088 152.564 7.64867C152.069 7.59646 151.705 8.01414 151.106 7.8053C150.845 9.26715 150.298 10.5724 150.012 11.9298C149.699 13.2872 149.413 14.6708 149.022 16.0543C150.455 16.0543 151.861 16.0543 153.267 16.0543C153.345 15.976 153.423 15.8977 153.501 15.8194C153.527 15.5322 153.475 15.2451 153.579 14.984C154.1 13.5744 154.334 12.1125 154.725 10.6768C154.855 10.1808 154.751 9.63261 155.064 9.16273C155.35 8.71895 155.272 8.22297 155.272 7.8053Z" fill="#1C3472"/>
<path d="M143.294 6.4738C143.71 5.97782 143.632 5.32521 143.815 4.75091C143.971 4.17661 144.283 3.60232 144.075 2.94971C141.836 2.94971 139.622 2.94971 137.409 2.94971C136.576 2.94971 135.873 3.28906 135.17 3.65453C134.05 4.22882 133.685 5.35131 133.191 6.36939C133.269 6.4477 133.295 6.4738 133.321 6.4738C136.628 6.4738 139.935 6.4738 143.294 6.4738Z" fill="#1C3472"/>
<path d="M50.5942 7.70068C49.3703 7.70068 48.2506 7.70068 47.1049 7.70068C46.6623 7.83121 46.8966 8.24888 46.7924 8.48382C46.4279 9.31916 46.1154 10.1806 45.9332 11.042C45.6467 12.3212 45.2822 13.5742 44.9437 14.8272C44.8395 15.2188 44.6833 15.6103 44.527 16.0802C45.2041 16.0802 45.829 16.0802 46.4279 16.0802C47.0268 16.0802 47.6517 16.0802 48.1725 16.0802C48.3027 15.9497 48.4329 15.8714 48.4329 15.7931C48.6933 14.8272 48.9277 13.8613 49.2141 12.8955C49.5266 11.8513 49.839 10.8071 50.1515 9.76293C50.3077 9.11032 50.6202 8.45771 50.5942 7.70068Z" fill="#1C3472"/>
<path d="M6.4577 24.2249C10.4417 26.5221 15.4412 26.6265 19.5034 24.2249C19.5034 24.016 19.5034 23.8072 19.5034 23.5723C19.1648 23.3112 18.7482 23.2851 18.3576 23.2851C15.0767 23.2851 11.7957 23.2851 8.5148 23.2851C7.83778 23.2851 7.13472 23.2068 6.4577 23.5723C6.4577 23.8072 6.4577 24.016 6.4577 24.2249Z" fill="#1C3472"/>
<path d="M19.5294 1.82739C19.3732 1.77518 19.269 1.77518 19.1909 1.72298C18.4878 1.22699 17.6285 1.07037 16.9255 0.62659C16.4828 0.731008 16.0662 0.469963 15.6495 0.365546C15.259 0.287232 14.8423 0.182815 14.4517 0.235024C13.983 0.287232 13.6445 -0.0260205 13.1758 8.3896e-05C12.3946 0.0522927 11.6135 0.365546 10.8323 0.208919C10.4677 0.574381 9.94696 0.39165 9.50429 0.548277C8.54084 0.86153 7.65551 1.2531 6.77017 1.74908C6.66602 1.80129 6.50978 1.74908 6.4577 1.8796C6.4577 2.06233 6.4577 2.27117 6.4577 2.4539C6.56186 2.55832 6.63998 2.63663 6.74413 2.74105C10.8583 2.74105 14.9725 2.74105 19.0867 2.74105C19.1388 2.74105 19.2169 2.71494 19.269 2.71494C19.6335 2.50611 19.5294 2.19285 19.5294 1.82739Z" fill="#1C3472"/>
<path d="M151.548 6.47382C154.334 6.47382 157.095 6.47382 159.855 6.47382C159.881 6.47382 159.907 6.44772 159.933 6.42161C159.959 6.39551 159.959 6.36941 159.985 6.29109C159.725 5.89953 159.412 5.50796 159.204 5.09029C158.969 4.64651 158.605 4.30716 158.292 3.91559C157.98 3.52402 157.433 3.3935 157.173 2.97583C155.48 2.97583 153.84 2.97583 152.173 2.97583C152.095 4.17663 151.548 5.24691 151.548 6.47382Z" fill="#1C3472"/>
<path d="M101.136 6.4477C104.053 6.4477 106.891 6.4477 109.729 6.4477C108.974 5.03806 108.089 3.78505 106.657 2.94971C105.224 2.94971 103.74 2.94971 102.178 2.94971C101.683 4.04609 101.449 5.2469 101.136 6.4477Z" fill="#1C3472"/>
<path d="M150.741 3.00195C149.257 3.00195 147.799 3.00195 146.366 3.00195C145.924 4.15055 145.585 5.29914 145.351 6.44774C146.887 6.44774 148.424 6.44774 149.856 6.44774C150.246 5.27304 150.559 4.15055 150.741 3.00195Z" fill="#1C3472"/>
<path d="M60.2027 2.97583C60.0464 4.22884 59.4215 5.27302 59.2653 6.44772C60.7755 6.44772 62.3118 6.44772 63.8221 6.44772C64.1086 5.27302 64.4471 4.15053 64.6554 2.97583C63.1191 2.97583 61.6609 2.97583 60.2027 2.97583Z" fill="#1C3472"/>
<path d="M70.4361 6.44774C70.6444 5.29914 71.061 4.17665 71.2693 3.00195C69.733 3.00195 68.2488 3.00195 66.8426 3.00195C66.5041 4.17665 66.1917 5.29914 65.8531 6.44774C67.3895 6.44774 68.8997 6.44774 70.4361 6.44774Z" fill="#1C3472"/>
<path d="M96.0587 2.97583C95.7462 4.12442 95.4597 5.29912 95.1473 6.44772C96.6576 6.44772 98.1157 6.44772 99.5479 6.44772C99.7562 5.89953 99.9645 5.37744 100.043 4.77703C100.095 4.17663 100.563 3.65454 100.355 2.97583C98.975 2.97583 97.595 2.97583 96.0587 2.97583Z" fill="#1C3472"/>
<path d="M59.5256 21.1968C59.3173 20.8575 59.3173 20.3876 58.9007 20.231C57.6508 20.231 56.3749 20.231 55.0989 20.231C55.125 21.484 55.0729 22.7109 55.151 23.9378C55.4374 23.8856 55.6718 23.99 55.9062 23.8334C55.9062 23.494 55.9062 23.1547 55.9062 22.7892C56.6092 22.7892 57.2862 22.7892 57.9893 22.7892C58.2757 23.1547 58.5101 23.6245 58.9788 23.9639C59.0569 23.8073 59.3433 24.1205 59.4214 23.7028C59.1871 23.4418 58.9007 23.1547 58.6403 22.8414C58.8746 22.6326 59.0569 22.3454 59.4475 22.2671C59.1611 21.8755 59.812 21.6145 59.5256 21.1968ZM58.7444 21.8755C58.6403 21.98 58.5622 22.0583 58.432 22.1888C57.7549 22.1888 57.0258 22.1888 56.2967 22.1888C56.2447 22.1888 56.1926 22.2671 56.1665 22.3193C55.6197 21.9016 55.9843 21.3273 55.8541 20.7791C56.7915 20.7791 57.6508 20.7791 58.5361 20.7791C58.5882 20.8314 58.6663 20.9097 58.7705 21.0141C58.7444 21.2751 58.7444 21.5623 58.7444 21.8755Z" fill="#1C3472"/>
<path d="M125.717 20.1787C124.988 20.1787 124.129 20.2048 123.244 20.1787C122.775 20.1787 122.384 20.3092 122.072 20.6486C121.994 21.1446 122.202 21.6667 121.864 22.1365C121.811 22.1888 121.811 22.3715 121.864 22.4237C122.202 22.7108 121.994 23.1024 122.046 23.4157C122.176 23.7028 122.541 23.6767 122.723 23.9116C123.53 23.9116 124.337 23.8855 125.144 23.9116C125.874 23.9377 126.446 23.755 126.733 22.8675C126.733 22.6064 126.707 22.1888 126.733 21.7711C126.811 21.0402 126.603 20.4659 125.717 20.1787ZM125.952 23.0502C125.795 23.3896 125.379 23.259 125.223 23.5984C124.441 23.1546 123.66 23.3896 122.931 23.3112C122.853 23.2329 122.801 23.1807 122.697 23.0763C122.697 22.4498 122.697 21.7711 122.697 21.0402C123.712 20.5703 124.728 20.9096 125.691 20.8052C125.795 20.9096 125.874 20.9879 125.978 21.0924C125.952 21.6928 125.952 22.3715 125.952 23.0502Z" fill="#1C3472"/>
<path d="M49.3964 21.745C49.3964 21.0924 49.2662 20.4398 48.4069 20.1787C47.4174 20.1787 46.3237 20.1787 45.2301 20.1787C44.8916 20.4137 44.7093 20.7269 44.527 21.1446C44.527 21.7189 44.527 22.3715 44.527 22.9719C44.7093 23.3634 44.8916 23.7028 45.2301 23.9116C46.3758 23.9116 47.5476 23.9116 48.7194 23.9116C48.9537 23.6506 49.3183 23.494 49.2141 23.0502C49.5786 22.6586 49.3964 22.1888 49.3964 21.745ZM48.6152 23.0502C48.2506 23.4418 47.834 23.5462 47.3393 23.5201C46.9226 23.494 46.506 23.5201 46.0894 23.5201C45.855 23.3634 45.5686 23.3373 45.3343 23.0241C45.4645 22.6064 44.9697 22.1888 45.152 21.745C45.2822 21.4578 45.2041 21.0402 45.5946 20.8052C46.48 20.8052 47.3914 20.8052 48.3808 20.8052C48.485 20.9096 48.5631 20.9879 48.6152 21.0402C48.6152 21.7189 48.6152 22.3976 48.6152 23.0502Z" fill="#1C3472"/>
<path d="M79.2113 20.1787C78.0916 20.1787 76.998 20.1787 75.9043 20.1787C75.67 20.4137 75.4356 20.6486 75.2273 20.8574C75.1492 21.4578 75.3314 22.0843 75.071 22.6847C75.2794 22.9719 75.2273 23.4157 75.5137 23.7289C76.2428 24.0161 78.9249 24.0422 79.6539 23.7028C80.1487 22.763 79.7841 21.7972 79.9404 20.9357C79.654 20.6486 79.4196 20.4137 79.2113 20.1787ZM79.029 23.259C78.6384 23.3896 78.2999 23.5723 77.7791 23.3634C77.2844 23.1546 76.6334 23.3112 76.0866 23.3112C75.9824 23.2068 75.9303 23.1546 75.8262 23.0502C75.8262 22.3976 75.8262 21.745 75.8262 21.0141C76.7376 20.5181 77.7791 20.8835 78.8207 20.7269C78.9509 20.9096 79.0811 21.0924 79.2894 21.4056C79.3675 21.9277 79.3154 22.6064 79.029 23.259Z" fill="#1C3472"/>
<path d="M90.0176 20.8574C89.8874 20.6486 89.7832 20.4398 89.627 20.2048C88.299 20.2048 87.0231 20.2048 85.7471 20.2048C85.7732 21.4578 85.7211 22.6848 85.7992 23.9117C86.0075 23.8595 86.1898 23.9639 86.32 23.8333C86.4242 23.494 86.1638 23.0502 86.6325 22.7631C87.2053 22.7631 87.8042 22.7631 88.4292 22.7631C88.7416 23.1546 89.2103 23.4157 89.4187 23.9378C89.627 23.8333 89.8613 24.0161 90.0696 23.8333C89.8093 23.5462 89.5228 23.2329 89.2104 22.8936C89.8874 22.3454 90.1738 21.6928 90.0176 20.8574ZM89.2104 22.1105C88.299 22.1105 87.3616 22.1105 86.3981 22.1105C86.3981 21.6928 86.3981 21.2751 86.3981 20.8052C87.3095 20.8052 88.2469 20.8052 89.2364 20.8052C89.4707 21.4578 89.4707 21.4578 89.2104 22.1105Z" fill="#1C3472"/>
<path d="M137.253 22.8936C137.096 22.6586 137.096 22.3976 137.122 22.1105C137.122 21.7972 137.122 21.4578 137.122 21.1446C137.122 20.8313 137.122 20.5181 137.122 20.2048C136.888 20.2309 136.706 20.1526 136.498 20.3093C136.498 21.2751 136.498 22.3193 136.498 23.3374C136.445 23.3635 136.367 23.3896 136.315 23.4418C135.43 22.4237 134.675 21.3273 133.946 20.257C133.503 20.257 133.086 20.257 132.644 20.257C132.279 21.4056 132.54 22.5542 132.435 23.6506C132.8 23.9117 132.8 23.9117 133.243 23.8595C133.243 22.8675 133.243 21.8494 133.243 20.7008C133.998 21.1446 134.206 21.8494 134.649 22.3193C135.143 22.8675 135.456 23.5462 136.133 23.9639C136.445 23.9378 136.784 23.9378 137.096 23.9117C137.175 23.494 136.966 23.1546 137.253 22.8936Z" fill="#1C3472"/>
<path d="M65.2543 20.231C65.2543 21.484 65.2543 22.6587 65.2543 23.8856C65.4886 23.8856 65.723 23.8856 66.0354 23.8856C66.0354 23.4679 66.0354 23.1024 66.0354 22.737C67.077 22.737 68.0665 22.737 69.03 22.737C69.6809 21.7972 69.6809 21.1446 69.056 20.231C67.8061 20.231 66.5302 20.231 65.2543 20.231ZM68.7696 22.1105C67.8322 22.1105 66.9729 22.1105 66.0615 22.1105C66.0615 21.6928 66.0615 21.2751 66.0615 20.8053C66.8427 20.8053 67.6499 20.8053 68.405 20.8053C68.6133 20.9619 68.7956 21.1185 68.8737 21.1968C69.1341 21.6667 68.6133 21.7711 68.7696 22.1105Z" fill="#1C3472"/>
<path d="M97.7512 20.2048C97.1523 20.7008 96.996 21.4056 96.6836 22.0321C96.3711 22.6325 95.8764 23.1546 95.6941 23.8856C96.3451 24.0161 96.5534 23.5984 96.7617 23.1546C97.6731 23.1546 98.6105 23.1546 99.5219 23.1546C99.8083 23.3374 99.7822 23.755 100.095 23.9117C100.251 23.8595 100.485 24.0683 100.616 23.7028C99.8604 22.5803 99.4177 21.249 98.5844 20.2048C98.2199 20.2048 97.9855 20.2048 97.7512 20.2048ZM97.3085 22.737C97.1263 21.9016 97.6731 21.3795 98.1157 20.753C98.6626 21.3273 99.0532 21.8755 99.0011 22.737C98.4022 22.737 97.8814 22.737 97.3085 22.737Z" fill="#1C3472"/>
<path d="M34.7623 20.8835C34.7623 21.6145 34.7623 22.3193 34.7623 22.9197C34.9706 23.494 35.3092 23.8856 35.856 23.8856C36.8455 23.9117 37.861 23.8856 38.8505 23.8856C38.8505 23.6506 38.8505 23.5201 38.8505 23.3374C38.4339 23.2852 38.0172 23.2068 37.7048 23.5201C37.0798 23.1024 36.4288 23.4157 35.7258 23.2591C35.3352 22.5803 35.6477 21.7972 35.5435 21.0663C35.6477 20.9619 35.7518 20.8574 35.882 20.7269C36.8455 20.7269 37.835 20.7269 38.8505 20.7269C38.8505 20.5442 38.8505 20.3876 38.8505 20.2048C37.7048 20.2048 36.5851 20.2048 35.4394 20.2048C35.231 20.4137 34.9967 20.6486 34.7623 20.8835Z" fill="#1C3472"/>
<path d="M105.277 20.2831C105.277 20.3353 105.277 20.4136 105.277 20.4658C105.277 20.5702 105.25 20.6746 105.407 20.7529C105.954 20.7529 106.552 20.7529 107.229 20.7529C107.229 21.7971 107.229 22.8152 107.229 23.8594C107.542 23.8594 107.776 23.9638 108.011 23.7811C108.011 23.2851 108.011 22.7891 108.011 22.3192C108.011 21.7971 108.011 21.3011 108.011 20.7529C108.61 20.7529 109.156 20.7529 109.677 20.7529C109.807 20.5702 110.042 20.4919 109.938 20.257C108.844 20.1264 105.407 20.1264 105.277 20.2831Z" fill="#1C3472"/>
<path d="M115.458 20.2568C115.458 21.4054 115.458 22.5279 115.458 23.6504C115.614 23.7548 115.666 23.9376 115.901 23.9115C115.953 23.8593 116.057 23.7809 116.187 23.6504C116.187 22.4757 116.187 21.3532 116.187 20.2307C115.901 20.1785 115.666 20.1524 115.458 20.2568Z" fill="#1C3472"/>
</g>
<defs>
<clipPath id="clip0_206_1308">
<rect width="166" height="26" fill="white"/>
</clipPath>
</defs>
</svg>
